<svg id="Layer_1" data-name="Layer 1" xmlns="http://www.w3.org/2000/svg" viewBox="0 0 606.14 342.16"><defs><style>.cls-1{fill:none;}</style></defs><path class="cls-1" d="M277.31,53.38c0-1.77-.8-2.49-2.76-2.49-5.65,0-12.15,4.41-19.3,13.1A96.07,96.07,0,0,0,239.3,92.34,179.54,179.54,0,0,0,266,70.58C273.5,63,277.31,57.16,277.31,53.38Z"/><path d="M99.91,170.11c0,.23-.17.7-.43,1.64-.11.2-.19.4-.28.6l18.52-2.78c-.82-4.89-4.16-7.47-9.79-7.47-5.12,0-9.54,2.21-13.12,6.55a22.93,22.93,0,0,0-3,4.81l5.69-.85C98.57,170.75,99.42,170.23,99.91,170.11Z"/><path d="M237.14,99.13A187.54,187.54,0,0,0,268.62,74c8.91-9.06,13.24-15.88,13.24-20.86,0-3-1.27-6.67-7.31-6.67-7.52,0-16.35,5.64-26.26,16.77a143.09,143.09,0,0,0-24.35,39.29c-9.47,6.18-20.4,13.73-32.54,22.46a79.81,79.81,0,0,0,1.85-16.7c0-11.66-3.37-21-10-27.91S167.5,70,156.27,70c-20.37,0-41.22,8.4-62,25-16.23,13-29,27.86-38,44.1-7.6,13.75-12,27.75-13.21,41.71l13.47-2c4-21.74,14.63-43.06,31.66-63.6,22.2-26.8,45.46-40.39,69.11-40.39,9.42,0,17.11,3,22.84,9s8.65,14,8.65,23.9a88.22,88.22,0,0,1-3.23,21.51q-28.18,19.94-49.19,37.6l9.47-1.42q13.92-11.37,31-24.14l6.28-4.64a139.72,139.72,0,0,1-11.69,25l6.17-.93a130.93,130.93,0,0,0,12-28.46c11.19-8.2,21.72-15.71,31.36-22.36-1.73,4.43-3.26,8.75-4.57,12.85-4.93,14.68-8.89,26-11.85,33.93l19.59-2.94q2.91-10.76,6-24.78C233.19,114.68,235.54,104.69,237.14,99.13ZM255.25,64c7.15-8.69,13.65-13.1,19.3-13.1,2,0,2.76.72,2.76,2.49,0,3.78-3.81,9.57-11.33,17.2A179.54,179.54,0,0,1,239.3,92.34,96.07,96.07,0,0,1,255.25,64Z"/><path d="M279.28,103.21q1-1.93,4.43-1.93a24.44,24.44,0,0,1,10.92,2.89,21.74,21.74,0,0,1,8.47,6.8c1.24,1.87,2.28,2.8,3.09,2.8a2.2,2.2,0,0,0,1.58-.61,2,2,0,0,0,.64-1.49q0-1.76-2.22-4.29a26,26,0,0,0-5.72-4.76,35.25,35.25,0,0,0-19.21-5.19q-13.78,0-23.18,8.4a33.44,33.44,0,0,0-5.59,43.54l25.79-3.87V111.67Q278.28,105.13,279.28,103.21Z"/><rect x="344.73" y="97.34" width="26.22" height="13.11"/><polygon points="344.73 123.57 344.73 110.45 331.62 110.45 331.62 71.12 318.51 71.12 318.51 139.47 331.62 137.5 331.62 123.57 344.73 123.57"/><polygon points="370.95 110.45 370.95 131.6 384.07 129.64 384.07 110.45 370.95 110.45"/><path d="M410.8,94.05c7.23,0,12.89-5.9,12.89-13.57S418,67,410.8,67c-7.05,0-12.8,5.91-12.8,13.48S403.75,94.05,410.8,94.05Z"/><path d="M419.86,96.64a1.1,1.1,0,0,0-.53.09l-19.85,6.93c-2.44,1.1-3.74,2.4-3.83,4.71v.46a5,5,0,0,0,.61,2.77,20.1,20.1,0,0,0,1.57,2.49c1.13,1.75,2.44,4.15,2.44,9.42v3.7l21.07-3.16V98.21A1.55,1.55,0,0,0,419.86,96.64Z"/><path d="M567.65,100.17a16.06,16.06,0,0,0-9.29,3.34l13.53-2A7,7,0,0,0,567.65,100.17Z"/><path d="M539.37,102.39a7.91,7.91,0,0,0-5.75-2.22,14.62,14.62,0,0,0-7.69,2.22,41.69,41.69,0,0,0-8.44,7.24l23.94-3.58A7.29,7.29,0,0,0,539.37,102.39Z"/><path d="M511.86,100.17l-23.92,4.37.63,2.56a39,39,0,0,1,5-.83,5.2,5.2,0,0,1,3.53,1.21,3.58,3.58,0,0,1,1.39,2.74,6.17,6.17,0,0,1-.49,1.94l-.12.42L508.75,111Z"/><path d="M473.4,102.72a7.15,7.15,0,0,0-2.18-.17,20.33,20.33,0,0,0-3.8.2.61.61,0,0,0-.5.46,2.31,2.31,0,0,1-2.51,1.73,13.85,13.85,0,0,1-3.87-.86c-3.48-1.06-9.51-2.57-12-2.57a22.49,22.49,0,0,0-12.5,3.35c-3.31,2.15-4.92,5.36-4.92,9.8,0,2.49,1.24,5,2.82,7.5l21.33-3.2c-6.9-6.87-7.21-9.06-7.21-10.24a2.78,2.78,0,0,1,1.36-2.34,4.62,4.62,0,0,1,2.69-.81c2.39,0,8.09,2.17,10.7,4.08a42,42,0,0,1,5.92,5,6.52,6.52,0,0,0,2.52,1.89l6.83-1-4.18-12C473.61,102.85,473.4,102.72,473.4,102.72Z"/><path class="cls-1" d="M96.32,204.46a23.1,23.1,0,0,0,10.49,2.48c12.19,0,25.18-7.09,38.61-21.08a128,128,0,0,0,17.52-23l-25.57,3.84C119.83,181,106.07,193.66,96.32,204.46Z"/><path class="cls-1" d="M106.54,211.27A32.57,32.57,0,0,1,93.23,208,206.5,206.5,0,0,0,68.6,242.13,55.88,55.88,0,0,0,92.17,247c16.55,0,32.81-5.16,48.32-15.34s29.1-24.56,40.25-42.68a169.15,169.15,0,0,0,12.41-23.66c.82-2,1.79-4.46,2.9-7.4l-26.94,4a132.38,132.38,0,0,1-19.22,25.76C135,203.33,120.36,211.27,106.54,211.27Z"/><path class="cls-1" d="M109.42,173.45a12.16,12.16,0,0,1-3.65,8.78A11.72,11.72,0,0,1,97.14,186c-5,0-7.58-2.71-7.58-7.84a10.31,10.31,0,0,1,1.13-4.43l-1.74.26c-.34.57-.71,1.26-1.11,2.11A23.71,23.71,0,0,0,85.52,186c0,5.79,2.4,11.07,7.12,15.73q13.67-15.45,35.26-33.6l-18.69,2.8A15.66,15.66,0,0,1,109.42,173.45Z"/><path class="cls-1" d="M91,173.07c.27-.93.38-1.4.43-1.64-.49.13-1.34.65-2.45,2.51l1.74-.26C90.78,173.47,90.86,173.28,91,173.07Z"/><path class="cls-1" d="M64.3,239.56c6-10.43,14.41-21.92,25.15-34.18A27.09,27.09,0,0,1,81,185.53a25,25,0,0,1,2.29-10.74l-35.2,5.28a109.38,109.38,0,0,0-1.88,20.16C46.18,218.44,52.27,231.67,64.3,239.56Z"/><path class="cls-1" d="M531.56,118.27l-4.93,17.61q11.31-21.15,21.42-29.67c.6-.5,1.2-.95,1.8-1.38l-16.93,2.54a8.83,8.83,0,0,1,.23,2A33.5,33.5,0,0,1,531.56,118.27Z"/><path class="cls-1" d="M504.59,116.19q2.22-2.88,4.39-5.23l-8.74,1.31-5.9,20.49A136.65,136.65,0,0,1,504.59,116.19Z"/><path d="M193.15,165.28a169.15,169.15,0,0,1-12.41,23.66c-11.15,18.12-24.69,32.48-40.25,42.68S108.72,247,92.17,247a55.88,55.88,0,0,1-23.57-4.83A206.5,206.5,0,0,1,93.23,208a32.57,32.57,0,0,0,13.31,3.27c13.82,0,28.41-7.94,43.35-23.59a132.38,132.38,0,0,0,19.22-25.76l-6.17.92a128,128,0,0,1-17.52,23c-13.43,14-26.42,21.08-38.61,21.08a23.1,23.1,0,0,1-10.49-2.48c9.75-10.8,23.51-23.45,41.05-37.78l-9.47,1.42q-21.56,18.1-35.26,33.6c-4.72-4.66-7.12-9.94-7.12-15.73a23.71,23.71,0,0,1,2.32-9.92c.4-.85.77-1.54,1.11-2.11l-5.69.85A25,25,0,0,0,81,185.53a27.09,27.09,0,0,0,8.48,19.85c-10.74,12.26-19.19,23.75-25.15,34.18-12-7.89-18.12-21.12-18.12-39.33a109.38,109.38,0,0,1,1.88-20.16l-13.47,2c-.22,2.55-.34,5.11-.34,7.66,0,25.41,9.33,43.7,27.74,54.39-4.33,8.91-6.53,17.2-6.53,24.66a47.36,47.36,0,0,0,3.65,17.28c2.61,6.59,5,9.66,7.62,9.66a2.09,2.09,0,0,0,2.34-2.16,3.86,3.86,0,0,0-1-2.68,37.18,37.18,0,0,1-7.49-22.39c0-6.21,2-13.61,5.79-22a62.89,62.89,0,0,0,25.83,5.06c34.76,0,66.58-14.55,94.57-43.23,9.7-9.94,16.77-19.85,21-29.47a177,177,0,0,0,7.89-23.94l-19.59,2.94C194.94,160.82,194,163.31,193.15,165.28Z"/><path d="M89.56,178.11c0,5.13,2.62,7.84,7.58,7.84a11.72,11.72,0,0,0,8.63-3.72,12.16,12.16,0,0,0,3.65-8.78,15.66,15.66,0,0,0-.21-2.55l-18.52,2.78A10.31,10.31,0,0,0,89.56,178.11Z"/><path d="M249,156.49q9.34,8.88,23.65,8.88a34.62,34.62,0,0,0,19.61-6.13,41.31,41.31,0,0,0,7.89-6.86q3.38-3.82,3.38-5.93a2.4,2.4,0,0,0-.73-1.66,2.15,2.15,0,0,0-1.6-.79c-.82,0-1.66.72-2.51,2.16a33.33,33.33,0,0,1-10.86,11.36,25,25,0,0,1-13.55,4.23c-1.83,0-3-.4-3.65-1.2s-.9-2.4-.9-4.81l0-3.74v-5.17L244,150.69A35.6,35.6,0,0,0,249,156.49Z"/><polygon points="362.44 164.22 375.56 164.22 375.56 130.97 362.44 132.93 362.44 164.22"/><polygon points="310 164.22 323.11 164.22 323.11 138.83 310 140.79 310 164.22"/><path d="M391.76,151.79a18.72,18.72,0,0,1-1,6.19c-1.31,3.41-2.18,5.63-2.18,7.38a8.41,8.41,0,0,0,.09,1.3c.09.64,1,1.56,2.44,2.58a32.18,32.18,0,0,1,8.44,6.65c12.1,13.94,12.54,21.23,23.42,33.51,4.27,5.08,13.22,8.72,18.44,8.72,14.11,0,24.83-14,24.83-29,0-11.64-8.79-16.81-15.23-16.81h-.44a11.84,11.84,0,0,0-9.14,5.82,42.92,42.92,0,0,1,9.58,14.49c2.09,5.36,1.83,8.22,1.83,8.87a11.49,11.49,0,0,1-1.48,5.91c-1.31,2.12-3.92,3.14-7.14,3.14C439,210.56,432.5,205,427,199.8c-5.84-5.63-14.19-13.57-14.19-29V125.38l-21.07,3.16Z"/><path d="M559.21,156.53a5.38,5.38,0,0,1-2.42,1.32,1.35,1.35,0,0,1-1.11-.49,2.37,2.37,0,0,1-.63-1.66q0-1,2.5-9.77l7.62-27a32,32,0,0,0,1.25-8.52q0-4.57-2-6.76a7.5,7.5,0,0,0-1-.88l-13.53,2c-.6.43-1.2.88-1.8,1.38q-10.11,8.52-21.42,29.67l4.93-17.61a33.5,33.5,0,0,0,1.59-8.87,8.83,8.83,0,0,0-.23-2L509,111q-2.18,2.36-4.39,5.23a136.65,136.65,0,0,0-10.25,16.57l5.9-20.49-10.88,1.63-1.54,5.41L475,164.23h10.25q6.53-20.65,8.25-24.47a91.58,91.58,0,0,1,10.16-17q6.54-8.88,10.71-11.58a9,9,0,0,1,4.85-1.66,2.36,2.36,0,0,1,1.87.9,4.2,4.2,0,0,1,.76,2.77c0,1.53-.65,4.55-1.94,9.08l-11.85,41.94h10.47a148.41,148.41,0,0,1,10.25-26.83q8.33-15.87,17.89-24.67c2.17-2,4.22-3,6.17-3a2.43,2.43,0,0,1,1.87,1,4.29,4.29,0,0,1,.76,2.7,16.16,16.16,0,0,1-.21,2.56q-.13.84-2.29,8.53l-6.3,22.25q-2.85,10.05-2.85,13.38a5.66,5.66,0,0,0,1.63,4.09,5.49,5.49,0,0,0,4.06,1.66,12.06,12.06,0,0,0,5.75-1.73,32.63,32.63,0,0,0,7.52-6.59,59.74,59.74,0,0,0,6.14-7.62l-2.29-1.46A35.61,35.61,0,0,1,559.21,156.53Z"/><path d="M462.74,117.89a13.78,13.78,0,0,0,3.86.36,8,8,0,0,0,3.23-.39,3.18,3.18,0,0,0-.1-.52l-.16-.47-6.83,1Z"/><path d="M427,125.89a91.41,91.41,0,0,0,11.55,12.81A91.85,91.85,0,0,1,448,149.29c1.95,2.34,2.89,4.31,2.89,6,0,1.29-.59,3.47-4.6,3.47s-8.21-2.6-12.51-7.71a7,7,0,0,0-2.32-2,11,11,0,0,0-3.47-.34,12.09,12.09,0,0,0-4.23.44l.15.6,4,12.61a1.47,1.47,0,0,0,.63.95c.09.06.67.32,3,.32a14.19,14.19,0,0,0,3.63-.22s.22-.12.42-.85a2.14,2.14,0,0,1,2.28-1.86,12.64,12.64,0,0,1,4.09,1.1,26.81,26.81,0,0,0,9.3,1.83,20,20,0,0,0,12.06-3.74c3.34-2.44,4-5.77,4-10.18a20.1,20.1,0,0,0-3.39-11.4c-2.33-3.46-6.83-8.32-13.39-14.45-1.41-1.3-2.63-2.48-3.69-3.54l-21.33,3.2C425.94,124.29,426.48,125.09,427,125.89Z"/></svg>